<?xml version="1.0" standalone="no"?>
<!DOCTYPE svg PUBLIC "-//W3C//DTD SVG 20010904//EN"
 "http://www.w3.org/TR/2001/REC-SVG-20010904/DTD/svg10.dtd">
<svg version="1.0" xmlns="http://www.w3.org/2000/svg"
 width="900.000000pt" height="900.000000pt" viewBox="0 0 900.000000 900.000000"
 preserveAspectRatio="xMidYMid meet">
<metadata>
Created by potrace 1.11, written by Peter Selinger 2001-2013
</metadata>
<g transform="translate(0.000000,900.000000) scale(0.100000,-0.100000)"
fill="#000000" stroke="none">
<path d="M4100 8994 c-308 -35 -452 -59 -675 -114 -1102 -267 -2065 -949
-2698 -1910 -401 -609 -648 -1317 -718 -2053 -16 -176 -6 -836 15 -982 51
-348 106 -586 201 -870 225 -672 576 -1237 1084 -1746 223 -222 346 -329 559
-482 608 -438 1288 -706 2067 -814 109 -15 200 -18 560 -18 360 0 451 3 560
18 711 99 1316 321 1895 695 494 319 966 787 1294 1281 405 611 644 1271 732
2026 25 210 25 727 1 943 -117 1036 -547 1951 -1257 2676 -291 297 -547 503
-878 705 -531 325 -1111 531 -1752 622 -136 20 -204 23 -555 24 -220 2 -416 1
-435 -1z"/>
</g>
</svg>
